<svg width="2454" height="2655" xmlns="http://www.w3.org/2000/svg" xmlns:xlink="http://www.w3.org/1999/xlink" overflow="hidden"><defs><clipPath id="clip0"><rect x="75" y="-243" width="2454" height="2655"/></clipPath></defs><g clip-path="url(#clip0)" transform="translate(-75 243)"><path d="M1035.05 837.127 577.86 688.415 577.86 361.286 1035.05 509.998ZM1035.05 1944 577.861 2092.71 577.861 1783.68 1035.05 1634.97ZM1628.99 1030.32 1171.79 881.606 1171.79 554.476 1628.99 703.19ZM1628.99 1750.81 1171.8 1899.52 1171.8 1590.49 1628.99 1441.78ZM2547.86 1634.01 2267.97 1542.97 1765.73 1706.33 1765.73 1397.3 1792.94 1388.45 1489.01 1289.59 21.6471 1766.88C5.19497 1772.24-3.80621 1789.92 1.54306 1806.38L40.2818 1925.59C45.6302 1942.05 63.3042 1951.06 79.7556 1945.7L441.118 1828.16 441.118 2137.19 21.6487 2273.64C5.19655 2278.99-3.80384 2296.67 1.54464 2313.13L40.2833 2432.34C45.6318 2448.8 63.3058 2457.81 79.7572 2452.46L2529.15 1655.73C2537.38 1653.06 2543.74 1647.3 2547.38 1640.15ZM2653.46 1075.59 2619.72 971.762 2652.36 871.3C2657.71 854.84 2648.71 837.158 2632.26 831.807L79.7572 1.54382C63.305-3.80808 45.6318 5.19752 40.2826 21.6578L1.54385 140.87C-3.80463 157.331 5.19655 175.013 21.6487 180.364L441.117 316.806 441.117 643.936 79.7564 526.395C63.3042 521.043 45.631 530.048 40.2826 546.509L1.54385 665.721C-3.80542 682.182 5.19576 699.863 21.6479 705.215L2574.15 1535.48C2590.6 1540.83 2608.27 1531.82 2613.62 1515.36L2652.36 1396.15C2657.71 1379.69 2648.71 1362.01 2632.26 1356.66L1765.73 1074.8 1765.73 747.669 2460.39 973.624 2087.37 1094.96 2391.3 1193.82 2633.35 1115.09C2649.81 1109.73 2658.81 1092.05 2653.46 1075.59Z" fill-rule="evenodd" transform="matrix(-6.12323e-17 -1 -1 6.12323e-17 2529 2412)"/></g></svg>